<svg xmlns="http://www.w3.org/2000/svg" xmlns:xlink="http://www.w3.org/1999/xlink" width="236.958" height="50.322" viewBox="0 0 236.958 50.322"><defs><linearGradient id="a" x1="-0.025" y1="0.5" x2="1" y2="0.5" gradientUnits="objectBoundingBox"><stop offset="0" stop-color="#fff"/><stop offset="1" stop-color="#fff" stop-opacity="0.702"/></linearGradient></defs><g transform="translate(-62 -198.915)"><rect width="236.958" height="50.322" rx="25" transform="translate(62 198.915)" fill="url(#a)"/><circle cx="19.5" cy="19.5" r="19.5" transform="translate(69 205)" fill="#06bb43"/><g transform="translate(78.419 214.214)"><path d="M1416.137,920.607a2.02,2.02,0,0,0,.043-.267v-3.462c-.133-.052-.257-.1-.383-.149a4.708,4.708,0,0,1-3.235-4.5c-.006-.555-.008-1.111,0-1.665a1.247,1.247,0,0,1,1.27-1.344,1.229,1.229,0,0,1,1.224,1.328c.008.572-.006,1.145,0,1.717a2.049,2.049,0,0,0,1.092,1.836V904.09c0-.868.392-1.377,1.093-1.451a1.206,1.206,0,0,1,1.373,1.047,4.122,4.122,0,0,1,.03.624v7.781a2.1,2.1,0,0,0,1.2-1.624c.06-.532.038-1.073.052-1.61a1.266,1.266,0,0,1,1.236-1.384,1.243,1.243,0,0,1,1.249,1.366,11.365,11.365,0,0,1-.125,2.277,4.566,4.566,0,0,1-3.189,3.525c-.167.058-.4.261-.4.4-.022,1.8-.008,3.606,0,5.412,0,.03.026.06.07.158h2.761a4.768,4.768,0,0,1,.833.047,1.256,1.256,0,0,1,1.013,1.27,1.229,1.229,0,0,1-1.125,1.165,4.341,4.341,0,0,1-.467.015h-17.316a3.877,3.877,0,0,1-.467-.018,1.2,1.2,0,0,1-1.089-1.077,1.141,1.141,0,0,1,.8-1.3,1.756,1.756,0,0,0,1.573-1.9h6.869c.438,1.769.481,1.8,2.32,1.8Z" transform="translate(-1402.87 -902.823)" fill="#fff"/><path d="M1426.857,905.834a3.281,3.281,0,1,1,3.262,3.182A3.281,3.281,0,0,1,1426.857,905.834Zm.719,0a2.56,2.56,0,1,0,2.54-2.56,2.561,2.561,0,0,0-2.54,2.56Z" transform="translate(-1424.365 -902.67)" fill="#fff"/><path d="M1444.585,919.78a1.583,1.583,0,1,1-1.585,1.584A1.583,1.583,0,0,1,1444.585,919.78Z" transform="translate(-1438.829 -918.191)" fill="#fff"/></g><text transform="translate(118 232)" fill="#435259" font-size="20" font-family="TitilliumWeb-SemiBold, Titillium Web" font-weight="600"><tspan x="0" y="0">In a desert</tspan></text></g></svg>