<svg xmlns="http://www.w3.org/2000/svg" xmlns:xlink="http://www.w3.org/1999/xlink" width="236.958" height="50.322" viewBox="0 0 236.958 50.322"><defs><linearGradient id="a" x1="-0.025" y1="0.5" x2="1" y2="0.5" gradientUnits="objectBoundingBox"><stop offset="0" stop-color="#fff"/><stop offset="1" stop-color="#fff" stop-opacity="0.702"/></linearGradient></defs><g transform="translate(-62 -262.538)"><rect width="236.958" height="50.322" rx="25" transform="translate(62 262.538)" fill="url(#a)"/><circle cx="19.5" cy="19.5" r="19.5" transform="translate(69 268)" fill="#06bb43"/><g transform="translate(76.698 276.446)"><path d="M1447.055,929.946c-.482-.1-.858-.159-1.218-.264-.569-.164-.642-.34-.254-.784.78-.89,1.6-1.743,2.4-2.613.12-.12.228-.259.361-.408l-1.6-.482,2.8-3.652-1.142-.39c.575-.964,1.1-1.844,1.611-2.719.458-.777.91-1.559,1.366-2.337.174-.3.393-.459.623-.076q1.446,2.424,2.883,4.862c.017.03,0,.077.011.2l-1.024.345,2.841,3.7c-.612.19-1.058.329-1.6.494l1.747,1.522c-.121,1.019-1.194,1.5-.712,2.53-.211.271-.463.6-.723.934-.292.361-.468.7.177.941l-.921,1.016c-.341.377-.5.73.146.942-.384.882-1.2.523-1.875.683.04.646.07,1.263.12,1.878.04.482-.157.716-.652.7-.421-.012-.843-.011-1.264,0-.458.011-.668-.192-.633-.657.048-.636.081-1.273.12-1.946-1.077-.058-2.117-.081-3.149-.177s-2.074-.227-3.1-.422c-.757-.145-.834-.389-.313-.94.771-.815,1.6-1.576,2.41-2.358C1446.654,930.31,1446.818,930.165,1447.055,929.946Z" transform="translate(-1439.624 -915.94)" fill="#fff"/><path d="M1416.29,983.613c-.633.589-1.2,1.112-1.771,1.656a12.258,12.258,0,0,0-.94,1.014c-.471.577-.378.928.352,1.122a14.014,14.014,0,0,0,2.127.386c1.2.128,2.428.2,3.643.288l.065.155a2.613,2.613,0,0,1-.675.274c-1,.107-2,.18-2.994.257-.214.017-.431,0-.708,0,.035.43.058.784.1,1.139s-.088.547-.494.564c-1.2.053-1.225.049-1.11-1.157.014-.158.022-.317.031-.469l-4.4-.463-.092-.282,2.117-2.117-1.153-.384,2.024-2.252-.946-.331,1.75-2.3-.7-.27,2.115-3.634,2.088,3.518-.64.275.12.057a4.063,4.063,0,0,1-.33.748c-.241.345-.554.636-.8.976-.319.442-.234.723.275.935C1415.616,983.436,1415.912,983.5,1416.29,983.613Z" transform="translate(-1409.42 -969.429)" fill="#fff"/><path d="M1534.706,1013.619l-3.2.331c-.26.39.467,1.213-.639,1.211-1.127,0-.316-.854-.723-1.251l-3.157-.352-.086-.252,1.763-1.5-1.011-.336,1.475-1.687-.708-.265,1.3-1.68-.468-.289,1.566-2.665c.557.93,1.053,1.758,1.566,2.627l-.531.241,1.325,1.747-.648.271,1.483,1.694-.732.308,1.5,1.577Z" transform="translate(-1512.745 -994.125)" fill="#fff"/></g><text transform="translate(118 295)" fill="#435259" font-size="20" font-family="TitilliumWeb-SemiBold, Titillium Web" font-weight="600"><tspan x="0" y="0">In a forest</tspan></text></g></svg>