<svg xmlns="http://www.w3.org/2000/svg" xmlns:xlink="http://www.w3.org/1999/xlink" width="236.958" height="50.322" viewBox="0 0 236.958 50.322"><defs><linearGradient id="a" x1="-0.025" y1="0.5" x2="1" y2="0.5" gradientUnits="objectBoundingBox"><stop offset="0" stop-color="#fff"/><stop offset="1" stop-color="#fff" stop-opacity="0.702"/></linearGradient></defs><g transform="translate(-62 -135.626)"><rect width="236.958" height="50.322" rx="25" transform="translate(62 135.626)" fill="url(#a)"/><circle cx="19.5" cy="19.5" r="19.5" transform="translate(69 141)" fill="#06bb43"/><g transform="translate(78.001 104.949)"><g transform="translate(-0.001 46.994)"><path d="M73.355,120.939l-7.644,6.3a.18.18,0,0,1-.007.04.182.182,0,0,0-.007.04V133.7a.863.863,0,0,0,.851.851h5.1v-5.1h3.4v5.105h5.1a.864.864,0,0,0,.851-.851V127.32a.187.187,0,0,0-.013-.079Z" transform="translate(-62.639 -117.496)" fill="#fff"/><path d="M21.284,55.3l-2.911-2.42V47.459a.41.41,0,0,0-.425-.425H15.4a.409.409,0,0,0-.425.425v2.592L11.726,47.34a1.649,1.649,0,0,0-2.02,0L.147,55.3A.386.386,0,0,0,0,55.589a.43.43,0,0,0,.093.313l.824.984a.453.453,0,0,0,.279.146.494.494,0,0,0,.319-.093l9.2-7.671,9.2,7.671a.41.41,0,0,0,.279.093h.04a.454.454,0,0,0,.279-.146l.824-.984a.43.43,0,0,0,.093-.313A.387.387,0,0,0,21.284,55.3Z" transform="translate(0.001 -46.994)" fill="#fff"/></g></g><text transform="translate(118 168)" fill="#435259" font-size="20" font-family="TitilliumWeb-SemiBold, Titillium Web" font-weight="600"><tspan x="0" y="0">In a house</tspan></text></g></svg>