<svg xmlns="http://www.w3.org/2000/svg" xmlns:xlink="http://www.w3.org/1999/xlink" width="236.958" height="65.618" viewBox="0 0 236.958 65.618"><defs><linearGradient id="a" x1="0.895" x2="0.124" y2="4.755" gradientUnits="objectBoundingBox"><stop offset="0" stop-color="#fff"/><stop offset="1" stop-color="#5a886f" stop-opacity="0"/></linearGradient></defs><g transform="translate(-62 -245.152)"><rect width="236.958" height="65.618" rx="32.809" transform="translate(62 245.152)" fill="url(#a)"/><g transform="translate(4)"><g transform="translate(82.007 258.073)"><path d="M1156.568,925.744c-.3-3.233.7-5.962,3.661-7.447a7.19,7.19,0,0,1,7.363.21,6.924,6.924,0,0,1,3.276,6.639c-.011.2-.021.392-.032.588-.2.4-.578.332-.925.357-2.8.2-4.088,1.422-4.47,4.22-.073.533.021,1.125-.5,1.509a.748.748,0,0,1-.526.063c-.575-.2-.506-.8-.731-1.258-.324.387-.123,1.04-.7,1.247a.753.753,0,0,1-.529-.014c-.511-.284-.435-.75-.421-1.234a4.3,4.3,0,0,0-4.216-4.526C1157.377,926.082,1156.852,926.318,1156.568,925.744Z" transform="translate(-1153.255 -917.39)" fill="#fff"/><path d="M1354.125,949.427c-.247-3.295.947-5.784,3.506-7.009a6.561,6.561,0,0,1,9.55,4.811,1.875,1.875,0,0,1,.086.813c.02,1.523.019,1.523-1.48,1.8a4.087,4.087,0,0,0-3.488,4.011c-.022.419.114.882-.3,1.208a.84.84,0,0,1-.709.11c-.142-.053-.316-.111-.37-.254-.175-.518-.379-.645-.782-.165-.147.175-.426.131-.649.02-.438-.291-.326-.752-.37-1.169a3.86,3.86,0,0,0-3.872-3.788C1354.844,949.78,1354.36,949.958,1354.125,949.427Z" transform="translate(-1326.459 -938.707)" fill="#fff"/><path d="M1265.9,1016.719a6.979,6.979,0,0,1,3.264.617,1.222,1.222,0,0,1,1.3.247,5.557,5.557,0,0,1,1.9,5.79c-.287.476-.78.46-1.245.508-2.007.211-2.806.949-3.207,2.961-.069.342-.054.712-.343.974a3.433,3.433,0,0,0-1.937.416.633.633,0,0,1-.337-.109,1.106,1.106,0,0,1-.29-.864c-.169-2.157-1.09-3.142-3.207-3.369a1.8,1.8,0,0,1-1.5-.785,2.719,2.719,0,0,1-.089-1.15c-.189-2.154,2.006-4.687,3.888-5.368C1264.784,1016.349,1265.285,1017.074,1265.9,1016.719Z" transform="translate(-1244.148 -1004.312)" fill="#fff"/><path d="M1133.334,983.408c3.044-1.163,7.051,2.007,5.9,5.9.186,1.44-.291,2.177-1.75,2.705-1.385.08-1.341-1.255-1.929-1.954-.231.831,1.082,1.421.37,2.335a4.576,4.576,0,0,1-5.64-2.96C1129.425,986.906,1130.64,984.5,1133.334,983.408Z" transform="translate(-1130.02 -975.054)" fill="#fff"/><path d="M1416.516,994.175a4.269,4.269,0,0,1,3.549-5.543c1.657-.149,1.779-.888,1.69-2.112a11.967,11.967,0,0,0,2,3.3,4.3,4.3,0,0,1,.617,5.329,4.139,4.139,0,0,1-4.781,1.843c-.771-.685.236-1.253.115-1.884-.511.529-.512,1.634-1.648,1.5C1416.6,995.944,1416.205,995.32,1416.516,994.175Z" transform="translate(-1381.033 -977.996)" fill="#fff"/><path d="M1169.01,1018.123a6.6,6.6,0,0,1-1.153-2.556c-.039-.41-.37-1.005.336-1.177.652-.159.9.3,1.03.851a3.274,3.274,0,0,0,1.272,2.18c1.48.263,1.562.22,1.823-1.124a2.052,2.052,0,0,1,.468-1.226c.011-.617.009-1.243.037-1.864a.636.636,0,0,1,.635-.695c.493-.021.7.275.729.72.035.617.043,1.243.063,1.864.012.053.023.1.035.157a7.161,7.161,0,0,0,.7,2.23c.617.286,1.009,0,1.316-.51a7.154,7.154,0,0,0,1.132-2.166,1.272,1.272,0,0,1,1.727-.9c.834.276.847.968.694,1.636a5.455,5.455,0,0,1-1.385,2.783,4.568,4.568,0,0,1-2.141,1.765c-.513.276-1.093.469-1.373,1.052a21.265,21.265,0,0,0-.617,4.309c-.023,3.345.01,6.693-.016,10.038-.011,1.5.617,2.939.37,4.454a.988.988,0,0,1-.141.4,1.175,1.175,0,0,1-.254.343l-1.285-.016-.247-.083q.031-6.853.063-13.709c.007-1.93-.017-3.861.01-5.8.009-.639-.123-.994-.849-1.134A6.19,6.19,0,0,1,1169.01,1018.123Z" transform="translate(-1163.097 -1000.781)" fill="#fff"/><path d="M1227.254,992.783a5.921,5.921,0,0,0,1.247-2.5c.1-.447.339-.987-.29-1.208s-.908.2-1.061.766a5.343,5.343,0,0,1-1.338,2.449,2.442,2.442,0,0,1-1.882-2.63,11.1,11.1,0,0,1,.2-2.445,4.659,4.659,0,0,1,9.034-.195c.149.513.352.855.938.817a5.882,5.882,0,0,0-4.934,3.935,9.634,9.634,0,0,0-.275,1.246C1228.256,993.647,1227.7,993.562,1227.254,992.783Z" transform="translate(-1212.352 -975.424)" fill="#fff"/><path d="M1368.719,1034.45a3.293,3.293,0,0,0,1.214-2.06c.147-.535.4-.878.973-.71.539.157.328.617.28.987a11.216,11.216,0,0,1-.977,2.484,7.14,7.14,0,0,1-3.693,1.906c-.348.163-.2.481-.2.729q-.014,8.635,0,17.269a1.079,1.079,0,0,0,.115.686.233.233,0,0,1,.059.178l-.825.1a.521.521,0,0,1-.591-.1,2.965,2.965,0,0,1-.4-2.034c-.017-4.6-.039-9.2.011-13.8.016-1.473-.3-2.61-1.765-3.249a4.183,4.183,0,0,1-1.5-1.3,5.018,5.018,0,0,1-1.39-2.888c-.042-.664.026-1.29.806-1.48a1.2,1.2,0,0,1,1.51.936,7.059,7.059,0,0,0,.961,1.99c.967.67,1.171.6,1.432-.437a1.788,1.788,0,0,0-.078-1.312.363.363,0,0,1,.159-.266c.539-.333.39-.892.453-1.381.043-.331.135-.643.53-.661.47-.022.587.323.617.7.036.548.046,1.1.067,1.646a1.305,1.305,0,0,1,.484.871C1367.233,1034.713,1367.245,1034.71,1368.719,1034.45Z" transform="translate(-1331.648 -1016.149)" fill="#fff"/><path d="M1341.039,1008.5a1.394,1.394,0,0,0-.04.215c.165,1.417-.247,2.013-1.659,2.378a3.983,3.983,0,0,1-1.266-2.213c-.1-.432-.26-.9-.841-.771-.689.153-.48.708-.4,1.153a10.85,10.85,0,0,0,1.032,2.372c-.158.617-.712.635-1.178.791-.53-.046-.872-.284-.886-.863a5.908,5.908,0,0,0-2.9-5.978,4.076,4.076,0,0,1,2.646-2.305C1338.978,1002.5,1341.6,1005,1341.039,1008.5Z" transform="translate(-1307.88 -992.564)" fill="#fff"/><path d="M1410.293,1105.567a2.722,2.722,0,0,1-.233-1.5v-15.61a2.153,2.153,0,0,1,.327-1.579q-.018,8.511-.038,17.034C1410.342,1104.465,1410.308,1105.015,1410.293,1105.567Z" transform="translate(-1375.516 -1065.976)" fill="#fff"/><path d="M1303.286,1154.51h-1.137a1.209,1.209,0,0,1-.253-.37,1.836,1.836,0,0,1-.2-.912q-.078-4.772,0-9.546a1.823,1.823,0,0,1,.35-1.22c.908-.355.655.4.662.762.038,1.6.016,3.219.016,4.828v3.3c0-2.679-.012-5.36.016-8.039,0-.37-.27-1.055.6-.894a1.636,1.636,0,0,1,.408,1.2c.044,3.347.069,6.693-.012,10.04a1.941,1.941,0,0,1-.123.577A.472.472,0,0,1,1303.286,1154.51Z" transform="translate(-1280.489 -1114.621)" fill="#fff"/><path d="M1314.88,1236.144a.438.438,0,0,0,.163-.073c.345-.562.924-.543,1.465-.551,2.547-.042,5.094-.037,7.648,0a1.715,1.715,0,0,1,1.488.54l.453.072a3.665,3.665,0,0,1-1.727.188q-4.048.012-8.1,0A2.9,2.9,0,0,1,1314.88,1236.144Z" transform="translate(-1292.083 -1196.255)" fill="#fff"/><path d="M1230.8,1236.133a8.527,8.527,0,0,1-3.046.157,58.439,58.439,0,0,1-7.422-.146.108.108,0,0,0-.065-.123,1.971,1.971,0,0,1,1.628-.526q3.667-.041,7.333,0a2.034,2.034,0,0,1,1.639.511A.161.161,0,0,0,1230.8,1236.133Z" transform="translate(-1209.143 -1196.242)" fill="#fff"/><path d="M1248.346,1077.052c-.394-.006-.787-.009-1.181-.018a3.726,3.726,0,0,1-2.028-6.854c.318-.222.728-.333.9-.74a2.51,2.51,0,0,0,1.14.224,3.63,3.63,0,0,1,3.556,4.75c.159,1.284-.023,1.6-1.234,2.2-.771-.06-.771-.06-1.367-.8C1248.271,1076.223,1248.847,1076.54,1248.346,1077.052Z" transform="translate(-1229.445 -1050.687)" fill="#fff"/><path d="M1321.553,1071.468l.94.472a2.265,2.265,0,0,1,2.2,1.918,4.281,4.281,0,0,1-4,5.481,1.5,1.5,0,0,1-1.2-.359c-.4-.517-.174-1.01.07-1.506-.378.466-.577,1.157-1.386,1.046a2.8,2.8,0,0,1-1.525-2.249.537.537,0,0,1,.164-.307C1316.823,1072.556,1317.991,1071.447,1321.553,1071.468Z" transform="translate(-1293.635 -1052.465)" fill="#fff"/><path d="M1280.717,1097.941a5.428,5.428,0,0,0,1.163-2.033c.123-.387.37-.631.794-.475s.268.5.222.81a8.175,8.175,0,0,1-.771,1.974c-.464,1.572-2.087,2.407-3.207,1.65a1.88,1.88,0,0,0-.334,1.451q0,4.365-.009,8.727a1.831,1.831,0,0,1-.227,1.321c-.343-.389-.233-.828-.234-1.22-.011-2.948,0-5.9-.007-8.846a2.079,2.079,0,0,0-.31-1.464,4.345,4.345,0,0,1-2.785-1.4,4.79,4.79,0,0,1-1.11-2.043c-.058-.37-.189-.846.343-.979.47-.123.57.308.682.64a2.739,2.739,0,0,0,1.051,1.647c.85.316,1.261-.149,1.446-.878a5.415,5.415,0,0,0,.217-1.042c.075-.34.16-.681.226-1.024.068-.363-.068-.894.477-.922.522-.027.475.526.617.864.123.287.225.58.337.87a1.6,1.6,0,0,1-.009.2C1279.269,1097.218,1279.19,1097.43,1280.717,1097.941Z" transform="translate(-1256.109 -1072.071)" fill="#fff"/></g><g transform="translate(78.007 280.504)"><path d="M1156.54,921.07a3.041,3.041,0,0,1,1.614-3.282,3.169,3.169,0,0,1,3.245.092,3.052,3.052,0,0,1,1.444,2.926c0,.086-.009.173-.014.259-.088.178-.255.146-.408.157a1.859,1.859,0,0,0-1.97,1.86c-.032.235.009.5-.222.665a.33.33,0,0,1-.232.028c-.253-.09-.223-.352-.322-.555-.143.171-.054.458-.308.55a.332.332,0,0,1-.233-.006c-.225-.125-.192-.331-.186-.544a1.9,1.9,0,0,0-1.858-1.995C1156.9,921.219,1156.665,921.323,1156.54,921.07Z" transform="translate(-1155.083 -917.39)" fill="#fff"/><path d="M1354.107,945.107a2.918,2.918,0,1,1,5.755-.969.826.826,0,0,1,.038.358c.009.672.008.672-.652.794a1.8,1.8,0,0,0-1.538,1.768c-.01.185.05.389-.131.532a.371.371,0,0,1-.313.048c-.062-.023-.139-.049-.163-.112-.077-.228-.167-.284-.345-.073-.065.077-.187.058-.286.009-.193-.128-.143-.332-.163-.515a1.7,1.7,0,0,0-1.707-1.67C1354.424,945.263,1354.211,945.342,1354.107,945.107Z" transform="translate(-1341.916 -940.384)" fill="#fff"/><path d="M1262.715,1016.618a3.076,3.076,0,0,1,1.439.272.539.539,0,0,1,.574.109,2.449,2.449,0,0,1,.836,2.552c-.127.21-.344.2-.549.224a1.36,1.36,0,0,0-1.414,1.3c-.03.151-.024.314-.151.43a1.512,1.512,0,0,0-.854.183.279.279,0,0,1-.148-.048.487.487,0,0,1-.128-.381,1.386,1.386,0,0,0-1.414-1.485.8.8,0,0,1-.659-.346,1.2,1.2,0,0,1-.039-.507,2.75,2.75,0,0,1,1.714-2.366C1262.221,1016.455,1262.442,1016.775,1262.715,1016.618Z" transform="translate(-1253.129 -1011.151)" fill="#fff"/><path d="M1131.477,983.271a2.1,2.1,0,0,1,2.6,2.6.967.967,0,0,1-.771,1.192c-.611.035-.591-.553-.85-.861-.1.367.477.626.163,1.029a2.017,2.017,0,0,1-2.486-1.3A2.065,2.065,0,0,1,1131.477,983.271Z" transform="translate(-1130.02 -979.591)" fill="#fff"/><path d="M1416.421,989.894a1.882,1.882,0,0,1,1.564-2.443c.73-.066.784-.391.745-.931a5.275,5.275,0,0,0,.882,1.456,1.893,1.893,0,0,1,.272,2.349,1.824,1.824,0,0,1-2.107.812c-.34-.3.1-.552.051-.83-.225.233-.226.72-.726.663C1416.458,990.674,1416.284,990.4,1416.421,989.894Z" transform="translate(-1400.785 -982.765)" fill="#fff"/><path d="M1168.3,1014.985a2.912,2.912,0,0,1-.508-1.126c-.017-.181-.163-.443.148-.519.288-.07.4.13.454.375a1.444,1.444,0,0,0,.561.961c.653.116.688.1.8-.5a.9.9,0,0,1,.206-.54c0-.272,0-.548.016-.822a.28.28,0,0,1,.28-.306c.217-.009.31.121.321.318.015.272.019.548.028.822.005.023.01.046.015.069a3.155,3.155,0,0,0,.307.983c.272.126.445,0,.58-.225a3.155,3.155,0,0,0,.5-.955.561.561,0,0,1,.761-.4c.368.122.374.427.306.721a2.4,2.4,0,0,1-.611,1.227,2.012,2.012,0,0,1-.944.778c-.226.122-.482.207-.6.464a9.371,9.371,0,0,0-.272,1.9c-.01,1.475,0,2.95-.007,4.425a12.467,12.467,0,0,1,.163,1.963.435.435,0,0,1-.062.177.518.518,0,0,1-.112.151l-.567-.007-.109-.036q.014-3.021.028-6.043c0-.851-.008-1.7,0-2.555,0-.282-.054-.438-.374-.5A2.728,2.728,0,0,1,1168.3,1014.985Z" transform="translate(-1165.7 -1007.343)" fill="#fff"/><path d="M1225.4,987.64a2.609,2.609,0,0,0,.55-1.1c.046-.2.15-.435-.128-.532s-.4.089-.468.338a2.354,2.354,0,0,1-.59,1.079,1.076,1.076,0,0,1-.83-1.159,4.9,4.9,0,0,1,.089-1.078A2.054,2.054,0,0,1,1228,985.1c.066.226.155.377.413.36a2.592,2.592,0,0,0-2.175,1.734,4.219,4.219,0,0,0-.121.549C1225.837,988.021,1225.593,987.984,1225.4,987.64Z" transform="translate(-1218.83 -979.991)" fill="#fff"/><path d="M1363.85,1031.985a1.452,1.452,0,0,0,.535-.908c.065-.236.175-.387.429-.313.238.069.145.272.123.435a4.942,4.942,0,0,1-.431,1.1,3.147,3.147,0,0,1-1.628.84c-.153.072-.09.212-.09.321q-.006,3.806,0,7.612a.476.476,0,0,0,.051.3.1.1,0,0,1,.026.078l-.364.046a.23.23,0,0,1-.26-.042,1.306,1.306,0,0,1-.177-.9c-.008-2.027-.017-4.055.005-6.083a1.321,1.321,0,0,0-.778-1.432,1.843,1.843,0,0,1-.662-.573,2.212,2.212,0,0,1-.613-1.273c-.018-.292.011-.569.355-.652a.53.53,0,0,1,.666.413,3.106,3.106,0,0,0,.424.877c.426.3.516.266.631-.193a.788.788,0,0,0-.034-.578.16.16,0,0,1,.07-.118c.238-.147.172-.393.2-.609.019-.146.059-.283.234-.292.207-.01.259.142.272.308.016.241.02.483.029.725a.576.576,0,0,1,.213.384C1363.2,1032.1,1363.2,1032.1,1363.85,1031.985Z" transform="translate(-1347.514 -1023.92)" fill="#fff"/><path d="M1336.487,1005.5a.64.64,0,0,0-.017.095c.073.625-.109.887-.731,1.048a1.756,1.756,0,0,1-.558-.975c-.046-.19-.115-.4-.371-.34-.3.067-.211.312-.178.508a4.783,4.783,0,0,0,.455,1.046c-.07.272-.314.28-.519.349-.234-.02-.384-.125-.39-.381a2.6,2.6,0,0,0-1.278-2.635,1.8,1.8,0,0,1,1.166-1.016A1.925,1.925,0,0,1,1336.487,1005.5Z" transform="translate(-1321.876 -998.479)" fill="#fff"/><path d="M1410.159,1095.116a1.2,1.2,0,0,1-.1-.66v-6.881a.949.949,0,0,1,.144-.7q-.008,3.751-.017,7.508C1410.18,1094.631,1410.165,1094.873,1410.159,1095.116Z" transform="translate(-1394.834 -1077.668)" fill="#fff"/><path d="M1302.374,1147.721h-.5a.532.532,0,0,1-.111-.163.81.81,0,0,1-.089-.4q-.034-2.1,0-4.208a.8.8,0,0,1,.154-.538c.4-.157.289.177.292.336.017.707.007,1.419.007,2.128v1.453c0-1.181-.005-2.362.007-3.543,0-.163-.119-.465.266-.394a.721.721,0,0,1,.18.53c.02,1.475.031,2.95-.005,4.425a.858.858,0,0,1-.054.255A.208.208,0,0,1,1302.374,1147.721Z" transform="translate(-1292.329 -1130.141)" fill="#fff"/><path d="M1314.88,1235.778a.193.193,0,0,0,.072-.032c.152-.248.407-.239.646-.243,1.123-.019,2.246-.016,3.371,0a.756.756,0,0,1,.656.238l.2.032a1.615,1.615,0,0,1-.761.083q-1.785.005-3.569,0A1.279,1.279,0,0,1,1314.88,1235.778Z" transform="translate(-1304.835 -1218.198)" fill="#fff"/><path d="M1224.913,1235.765a3.76,3.76,0,0,1-1.342.069,25.778,25.778,0,0,1-3.271-.064.048.048,0,0,0-.029-.054.869.869,0,0,1,.718-.232q1.616-.018,3.232,0a.9.9,0,0,1,.723.225A.072.072,0,0,0,1224.913,1235.765Z" transform="translate(-1215.369 -1218.184)" fill="#fff"/><path d="M1245.6,1072.8c-.173,0-.347,0-.52-.008a1.642,1.642,0,0,1-.894-3.021c.14-.1.321-.147.4-.326a1.106,1.106,0,0,0,.5.1,1.6,1.6,0,0,1,1.567,2.094c.07.566-.01.707-.544.972-.34-.027-.34-.027-.6-.351C1245.563,1072.43,1245.817,1072.57,1245.6,1072.8Z" transform="translate(-1237.269 -1061.176)" fill="#fff"/><path d="M1318.811,1071.468l.414.208a1,1,0,0,1,.969.845,1.887,1.887,0,0,1-1.765,2.416.663.663,0,0,1-.527-.158c-.176-.228-.077-.445.031-.664-.166.206-.254.51-.611.461a1.233,1.233,0,0,1-.672-.991.237.237,0,0,1,.072-.135C1316.726,1071.947,1317.241,1071.458,1318.811,1071.468Z" transform="translate(-1306.509 -1063.094)" fill="#fff"/><path d="M1276.874,1095.643a2.393,2.393,0,0,0,.513-.9c.054-.171.163-.278.35-.209s.118.222.1.357a3.608,3.608,0,0,1-.34.87,1,1,0,0,1-1.414.727.829.829,0,0,0-.147.639q0,1.924,0,3.847a.807.807,0,0,1-.1.582c-.151-.171-.1-.365-.1-.538,0-1.3,0-2.6,0-3.9a.916.916,0,0,0-.136-.645,1.916,1.916,0,0,1-1.228-.618,2.112,2.112,0,0,1-.489-.9c-.025-.163-.083-.373.151-.432.207-.054.251.136.3.282a1.207,1.207,0,0,0,.463.726c.375.139.556-.066.637-.387a2.372,2.372,0,0,0,.1-.459c.033-.15.071-.3.1-.451s-.03-.394.21-.406.209.232.272.381c.054.127.1.255.148.383a.712.712,0,0,1,0,.09C1276.235,1095.324,1276.2,1095.418,1276.874,1095.643Z" transform="translate(-1266.031 -1084.242)" fill="#fff"/></g></g><text transform="translate(267 286)" fill="#435259" font-size="20" font-family="TitilliumWeb-SemiBold, Titillium Web" font-weight="600"><tspan x="-115.12" y="0">More than 10</tspan></text></g></svg>