<svg xmlns="http://www.w3.org/2000/svg" xmlns:xlink="http://www.w3.org/1999/xlink" width="236.958" height="65.618" viewBox="0 0 236.958 65.618"><defs><linearGradient id="a" x1="0.895" x2="0.124" y2="4.755" gradientUnits="objectBoundingBox"><stop offset="0" stop-color="#fff"/><stop offset="1" stop-color="#5a886f" stop-opacity="0"/></linearGradient></defs><g transform="translate(-62 -411.076)"><rect width="236.958" height="65.618" rx="32.809" transform="translate(62 411.076)" fill="url(#a)"/><path d="M1434.7,938.078l-.7-.749c1.154.493,1.858-.183,2.627-.919a14.8,14.8,0,0,1,2.1-1.421,2.2,2.2,0,0,0-2.153-.829,6.975,6.975,0,0,0-5.344,2.814c-.754.889-1.4,1.871-2.211,2.754l.431-.988h-2.33c2.114.161,3.014-1.365,3.929-2.823a2.63,2.63,0,0,0,.2-.861c-.3-.062-.646-.239-.9-.164a20.621,20.621,0,0,0-2,.792l.754-1.018h-1.092v-.327c.829,0,1.66.032,2.487,0a14.388,14.388,0,0,0,2.767-.269c1.057-.265,1.275-1.077.683-2a2.854,2.854,0,0,0-3.445-1.428c-.818.187-1.63.4-2.446.607l1.193-1-1.507-.81,4.851.693c-.431-1.292-.73-2.213-1.04-3.148l.581-.306a1.4,1.4,0,0,0,.069.263c.319.7.663,1.4.952,2.117.114.28.047.633.157.915.568,1.451,2.487,3.2,4,2.971a5.422,5.422,0,0,1,1.4.215c-.291-.353-.469-.562-.646-.777a6.061,6.061,0,0,1-.889-1.184c-.68-1.563-.646-1.574-2.513-2.078a8.283,8.283,0,0,0,.975-.058,4.26,4.26,0,0,0,.646-.215l-1.8-3.389.366-.2c.381,2.035,2.663,2.941,2.838,5.114a1.328,1.328,0,0,0,.431.728,26.543,26.543,0,0,0,2.018,1.824,2.511,2.511,0,0,0,.941.241c0-.327.125-.777-.039-.958-.388-.431-.25-.792-.23-1.292a3.417,3.417,0,0,0-1.468-3.07,7.216,7.216,0,0,1-2.13-2.935c-.336-.657-.586-1.357-.805-1.875.812-.969-.187-1.957.015-2.859.7.4.269,1.7,1.352,1.878-.708,1.824,0,3.428,2.28,4.827a1.724,1.724,0,0,0,.181-.34c.349-1.331.633-2.681,1.053-3.988.4-1.234.786-2.412-.248-3.587l.663.338V917.52h.373c.06,1.585.536,3.3.086,4.737a12.61,12.61,0,0,0-.073,7.039,11.179,11.179,0,0,0,.827,2.728c.581,1.044,1.15.932,1.817-.041a6.639,6.639,0,0,0,.177-7.751c-.5-.838-.9-1.735-1.348-2.605l.237-.127,1.188,2.011a6.8,6.8,0,0,0,.7-4.332l.717-.977c.661,1.018-.166,2-.289,3.014-.1.861-.351,1.686-.431,2.536a4.7,4.7,0,0,0,.321,1.344l.8-.962-.215.03q.133,2.829.261,5.661a2.685,2.685,0,0,0,2.418-2.493c.065-1.064.215-2.121.319-3.18l.293.03q-.17,1.266-.34,2.534l.312.049c.185-.848.319-1.722.573-2.539a9.122,9.122,0,0,1,1.089-2.3c-.381,1.372-.762,2.743-1.21,4.364l1.469-.945c-1.809,2.039-2.642,4.866-5.187,6.214,1.171-.067,2.341-.161,3.514-.189a1.7,1.7,0,0,0,1.867-1.559c.06-.659.7-.431.805-.814.168-.62.278-1.255.409-1.886a4,4,0,0,1,.383-1.21V928.6l2.052-.683-3.71,2.842.215.431,5.008-1.234a10.379,10.379,0,0,1-4.674,1.867c-1.8.342-3.6.609-5.407.915a1.7,1.7,0,0,0-1.488,1.21c-.239.747.112,1,.734.825.861-.243,1.753-.323,2.584-.482,2.556-.489,5.31-.691,7.506-2.556l-.8,1.077.148.269,3.182-1.378c-.185.62-1.406.594-1.212,1.6a13.317,13.317,0,0,0-6.145,1.494c1.245,1.186,5.768,2.646,8.068,1.326-.4.756-.4.756-3.393,1.292l1.477,1.227c-.756.945.592,1.417.711,2.457-.665-.792-1.152-1.428-1.694-2.011-.827-.887-1.52-2.065-3.075-1.574-.11.034-.284-.215-.448-.265a20.144,20.144,0,0,0-3.751-1.15c-2.771-.329-4.2.881-4.216,3.673-.017,3.4.189,6.806.383,10.206a3.011,3.011,0,0,0,2.429,3.027c1.391.327,2.786.646,4.16,1.027a13.678,13.678,0,0,1,2.584,1.044c-1.708-.08-3.432-.034-5.114-.276a32.278,32.278,0,0,1-5-1.208,6.4,6.4,0,0,0-3.464-.1c-2.056.463-4.149.76-6.231,1.092a9.347,9.347,0,0,1-1.453,0l-.041-.282c1.2-.329,2.388-.719,3.6-.975,3.014-.633,4.009-1.548,4.031-4.612.026-3.432-.271-6.864-.463-10.3a4.805,4.805,0,0,0-.385-1.337c-.551-1.49-1.042-1.626-2.386-.739-1.787,1.182-3.589,2.338-5.383,3.5-.1.067-.235.09-.456-.054Z" transform="translate(-1337.12 -492.485)" fill="#fff"/><text transform="translate(267 451)" fill="#435259" font-size="20" font-family="TitilliumWeb-SemiBold, Titillium Web" font-weight="600"><tspan x="-63.22" y="0">No tree</tspan></text></g></svg>