<svg xmlns="http://www.w3.org/2000/svg" xmlns:xlink="http://www.w3.org/1999/xlink" width="236.958" height="65.618" viewBox="0 0 236.958 65.618"><defs><linearGradient id="a" x1="0.895" x2="0.124" y2="4.755" gradientUnits="objectBoundingBox"><stop offset="0" stop-color="#fff"/><stop offset="1" stop-color="#5a886f" stop-opacity="0"/></linearGradient></defs><g transform="translate(-62 -328.114)"><rect width="236.958" height="65.618" rx="32.809" transform="translate(62 328.114)" fill="url(#a)"/><g transform="translate(86 341.806)"><path d="M1449.742,941.325c-.875-.186-1.557-.289-2.212-.479-1.033-.3-1.166-.617-.462-1.424,1.416-1.617,2.905-3.165,4.362-4.745.219-.219.413-.47.656-.742l-2.9-.875,5.082-6.631-2.074-.709c1.044-1.75,1.989-3.347,2.925-4.937.831-1.411,1.651-2.831,2.481-4.244.315-.54.713-.833,1.131-.138q2.625,4.4,5.235,8.827c.031.055,0,.14.02.359l-1.859.626,5.158,6.727c-1.111.346-1.921.6-2.9.9l3.172,2.763c-.219,1.851-2.168,2.726-1.293,4.594-.383.492-.84,1.094-1.312,1.7-.53.656-.849,1.267.322,1.708l-1.671,1.844c-.619.685-.91,1.326.265,1.711-.7,1.6-2.187.949-3.4,1.24.072,1.173.127,2.293.219,3.41.072.875-.284,1.3-1.183,1.275-.763-.022-1.531-.02-2.295,0-.832.02-1.212-.348-1.149-1.192.087-1.155.146-2.312.219-3.533-1.956-.105-3.844-.147-5.718-.322s-3.765-.411-5.62-.766c-1.374-.262-1.514-.707-.569-1.706,1.4-1.479,2.905-2.861,4.375-4.281C1449.014,941.986,1449.311,941.724,1449.742,941.325Z" transform="translate(-1436.249 -915.94)" fill="#fff"/><path d="M1421.894,989.161c-1.148,1.07-2.188,2.019-3.216,3.006a22.244,22.244,0,0,0-1.706,1.842c-.855,1.048-.687,1.684.639,2.037a25.432,25.432,0,0,0,3.861.7c2.188.232,4.408.354,6.615.523l.118.282a4.746,4.746,0,0,1-1.225.5c-1.807.195-3.623.326-5.436.466-.389.031-.783,0-1.286,0,.063.781.1,1.424.173,2.067s-.16.993-.9,1.024c-2.188.1-2.225.09-2.015-2.1.026-.287.039-.575.057-.851l-7.989-.84-.166-.512,3.844-3.844-2.093-.7,3.675-4.089-1.717-.6,3.176-4.172-1.277-.49,3.839-6.6,3.791,6.388-1.161.5.219.1a7.382,7.382,0,0,1-.6,1.358c-.438.626-1.006,1.155-1.453,1.772-.58.8-.424,1.313.5,1.7C1420.669,988.84,1421.207,988.956,1421.894,989.161Z" transform="translate(-1409.42 -963.452)" fill="#fff"/><path d="M1541.074,1020.739l-5.815.6c-.473.709.849,2.2-1.16,2.2-2.045,0-.573-1.551-1.312-2.271l-5.732-.639-.155-.457,3.2-2.715-1.835-.61,2.678-3.063-1.286-.481,2.363-3.049-.849-.525,2.844-4.839c1.011,1.689,1.912,3.192,2.844,4.769l-.965.438,2.406,3.172-1.177.492,2.693,3.076-1.33.56,2.715,2.863Z" transform="translate(-1501.2 -985.389)" fill="#fff"/></g><text transform="translate(267 368)" fill="#435259" font-size="20" font-family="TitilliumWeb-SemiBold, Titillium Web" font-weight="600"><tspan x="-42.02" y="0">1-10</tspan></text></g></svg>