<svg xmlns="http://www.w3.org/2000/svg" xmlns:xlink="http://www.w3.org/1999/xlink" width="236.958" height="50.322" viewBox="0 0 236.958 50.322"><defs><linearGradient id="a" x1="-0.025" y1="0.5" x2="1" y2="0.5" gradientUnits="objectBoundingBox"><stop offset="0" stop-color="#fff"/><stop offset="1" stop-color="#fff" stop-opacity="0.702"/></linearGradient></defs><g transform="translate(-62 -389.783)"><rect width="236.958" height="50.322" rx="25" transform="translate(62 389.783)" fill="url(#a)"/><circle cx="19.5" cy="19.5" r="19.5" transform="translate(69 395)" fill="#06bb43"/><g transform="translate(76 407.948)"><path d="M1235.215,1030.664H1226l4.176-6.129.033.011c0,.3.011.61,0,.915a.631.631,0,0,0,.721.717c.466-.024.934,0,1.4-.006a.573.573,0,0,0,.609-.612c0-.3,0-.587,0-.891h6.422c0,.3,0,.6,0,.908a.573.573,0,0,0,.426.576.7.7,0,0,0,.182.018q.738,0,1.476,0a.585.585,0,0,0,.645-.637c.006-.326,0-.651,0-.977,0,0,.007-.008.026-.028l4.178,6.13h-9.212c-.041-.425-.083-.849-.122-1.277-.052-.557-.1-1.113-.156-1.669a.168.168,0,0,0-.123-.108c-.357-.009-.714,0-1.07-.007-.114,0-.124.058-.132.148C1235.4,1028.714,1235.306,1029.679,1235.215,1030.664Z" transform="translate(-1223.816 -1016.718)" fill="#fff"/><path d="M1327.121,814.95a4.238,4.238,0,0,1-.538-.281.635.635,0,0,1-.192-.3.25.25,0,0,1,.208-.356,6.223,6.223,0,0,1,.935,0c.092.007.189.107.258.185.12.133.194.127.278-.037.3-.571.588-1.144.9-1.709a2.327,2.327,0,0,1,1.759-1.169,11.253,11.253,0,0,1,4.407.055,2.277,2.277,0,0,1,1.566,1.175c.3.529.566,1.073.84,1.614.1.207.15.2.319.041a.73.73,0,0,1,.381-.185,2.408,2.408,0,0,1,.644,0,.556.556,0,0,1,.336.174c.1.121.024.272-.061.39a.867.867,0,0,1-.707.354c.1.083.177.141.25.2a1.513,1.513,0,0,1,.547,1.359,4.256,4.256,0,0,1-.656,1.969.7.7,0,0,1-.647.344q-5.13-.005-10.26,0a.706.706,0,0,1-.646-.344,4.14,4.14,0,0,1-.667-2.1,1.509,1.509,0,0,1,.67-1.325C1327.078,814.986,1327.113,814.957,1327.121,814.95Zm9.935-.668a.171.171,0,0,0,0-.07c-.326-.591-.643-1.184-.985-1.763a1.293,1.293,0,0,0-.773-.558,7.825,7.825,0,0,0-1.845-.3,9.737,9.737,0,0,0-2.8.207,1.521,1.521,0,0,0-1.009.551c-.221.324-.439.651-.634.99-.169.3-.305.609-.471.944a56.355,56.355,0,0,1,8.521-.006Zm-.729,3.545c.267-.045.511-.072.749-.129.517-.123.675-.309.669-.833,0-.374-.027-.66-.614-.572a2.557,2.557,0,0,0-1.481.751.7.7,0,0,0-.106.148.306.306,0,0,0,.161.49A4.692,4.692,0,0,0,1336.327,817.828Zm-7.078-.007a4.884,4.884,0,0,0,.56-.089c.375-.1.455-.372.19-.659a2.5,2.5,0,0,0-1.65-.8c-.285-.028-.413.1-.45.392,0,.031-.008.061-.012.091a.749.749,0,0,0,.615.93C1328.75,817.753,1329.007,817.78,1329.248,817.821Z" transform="translate(-1320.481 -811.16)" fill="#fff"/><path d="M1166.83,1004.553l5.911-7.143c.316.311.208.569-.03.882-1.55,2.04-3.079,4.1-4.62,6.143a.327.327,0,0,1-.221.111C1167.537,1004.56,1167.205,1004.553,1166.83,1004.553Z" transform="translate(-1166.83 -990.599)" fill="#fff"/><path d="M1674.785,1004c-.379,0-.711.007-1.043-.005a.327.327,0,0,1-.221-.115q-1.763-2.341-3.516-4.69c-.427-.57-.852-1.144-1.284-1.709-.083-.111-.119-.2-.031-.322a2.572,2.572,0,0,0,.166-.323Z" transform="translate(-1650.118 -990.05)" fill="#fff"/><path d="M1349.027,1026.53a20.163,20.163,0,0,0,2.061.068c0,.329.009.659,0,.987a.209.209,0,0,1-.235.189c-.529,0-1.057,0-1.587,0a.221.221,0,0,1-.235-.249C1349.025,1027.19,1349.027,1026.859,1349.027,1026.53Z" transform="translate(-1342.302 -1018.644)" fill="#fff"/><path d="M1596.956,1026.589a20.077,20.077,0,0,0,2.063-.069c0,.338.006.685,0,1.031a.211.211,0,0,1-.234.211q-.793,0-1.587,0a.216.216,0,0,1-.239-.227C1596.952,1027.224,1596.956,1026.911,1596.956,1026.589Z" transform="translate(-1581.079 -1018.635)" fill="#fff"/></g><text transform="translate(118 422)" fill="#435259" font-size="20" font-family="TitilliumWeb-SemiBold, Titillium Web" font-weight="600"><tspan x="0" y="0">Town road</tspan></text></g></svg>