<svg xmlns="http://www.w3.org/2000/svg" xmlns:xlink="http://www.w3.org/1999/xlink" width="236.958" height="65.618" viewBox="0 0 236.958 65.618"><defs><linearGradient id="a" x1="0.895" x2="0.124" y2="4.755" gradientUnits="objectBoundingBox"><stop offset="0" stop-color="#fff"/><stop offset="1" stop-color="#5a886f" stop-opacity="0"/></linearGradient></defs><g transform="translate(-62 -162.626)"><rect width="236.958" height="65.618" rx="32.809" transform="translate(62 162.626)" fill="url(#a)"/><g transform="translate(81.62 175.506)"><path d="M1305.755,1103.78c.517.127,1.141-.113,1.469.608.119.262.425.011.521-.212a3.74,3.74,0,0,0,.468-1.725,2.008,2.008,0,0,1,.234-1.321,7.549,7.549,0,0,1,.184,1.948c.127.875.529,1.079,1.17.522.482-.42.7.065,1.123.2a22.6,22.6,0,0,0,.062-3.486c0-.543-.472-.448-.747-.346-1.58.582-2.61-.5-3.746-1.217a.828.828,0,0,1-.445-.843c.061-.279.291-.556.543-.521,1.049.139,1.41-.822,1.551-1.347.289-1.089.984-1.083,1.727-.988a11.972,11.972,0,0,1,4.26.832c.232.127.507.11.457.507a3.04,3.04,0,0,0,1.452,2.758,2.576,2.576,0,0,1-1.2.38c-.962.2-1.934.2-2.888.362a.442.442,0,0,0-.192.057c-.427.339-.275,3.265.185,3.589a.2.2,0,0,0,.1.028c.487.053.582,1.081,1.025.685a2.532,2.532,0,0,0,.989-1.868,4.861,4.861,0,0,1,.154-1.929c.442.781.174,1.505.227,2.186s-.077,1.507,1.06.8c.473-.293.648.311,1.065.624.105-.944.381-1.76-.2-2.55-.2-.27-.242-.592.07-.8a1.074,1.074,0,0,0,.417-1.25c-.412-1.437.388-2.781.232-4.195-.071-.634.526-1.014.75-1.58.407.3.311.672.275.969-.156,1.326.454,2.607.2,3.931-.054.285.19.486.337.706a1.089,1.089,0,0,1,.107,1.31,1.234,1.234,0,0,0,.143,1.716.719.719,0,0,1,.016,1c.112.157.115.439.355.444a1.617,1.617,0,0,1,1.225.785c.44.535.9.709,1.48.075a1.476,1.476,0,0,1,2.289.1,2.8,2.8,0,0,0,2.513.833c.266-.029.507-.152.558-.312.327-1.025,1.059-.782,1.775-.623.823.184,1.563-.408,2.409-.246.254.048.307-.473.5-.7a2.87,2.87,0,0,0,.254-1.537,3.306,3.306,0,0,1,.321-1.721c.626-.3.686.056.733.567.089.955.007,1.9.046,2.86.016.434-.092.931.38,1.2s.851-.045,1.2-.328c.522-.422.926-.322,1.352.2.583.706,1.041.614,1.483-.222.52-.984,1.228-1.13,1.869-.271.543.729.96,1.26,1.954.634.381-.238.956.1,1.452.119.241.009.366.27.38.528.011.3-.127.6-.4.624-.75.074-1.335.549-2.163.614a9.839,9.839,0,0,1-2.917.136c-.119-.025-.262.1-.388.183-.955.61-.96.61-1.689-.308-.064-.08-.144-.186-.207-.189-.928-.042-1.9-.43-2.771-.043a3.215,3.215,0,0,1-2.544.118c-.742-.3-1.1-.226-1.541.423a1.072,1.072,0,0,1-1.476.38c-.771-.38-1.6.219-2.409-.043a5.835,5.835,0,0,1-2.84.42,2.606,2.606,0,0,1-1.325-.358,2.077,2.077,0,0,0-1.921-.2c-.715.24-1.67-.253-2.075.854a.538.538,0,0,1-.349-.079c-.592-.729-1.661-.422-2.308-1.1-.326-.344-.917-.081-1.219.143-.85.634-1.9.537-2.811.955a.87.87,0,0,1-1.216-.29c-.183-.241-.7-.99-1.274-.15-.181.266-.46-.1-.588-.327-.278-.5-.534-.587-.992-.136a2.107,2.107,0,0,1-2.409.713.914.914,0,0,0-.69-.028c-1.014.557-1.491-.1-1.959-.81v-.2c.359-.288.72-.574,1.077-.866a3,3,0,0,0,.979-2.6c.425.95.761,1.31,1.253.2.373-.846.69.051,1.07.179l.081-.912C1305.943,1103.094,1305.548,1103.566,1305.755,1103.78Z" transform="translate(-1301.07 -1069.204)" fill="#fff"/><path d="M1364.55,1012.936c-.687.568-1.529,1-1.678,2.043-.481-.2-1.054-.935-1.108.221-.6-.2-.973,1.358-1.711.213-.254-.4-.507-.173-.686.115-.4.634-.879.729-1.357.119s-.942-.193-1.339,0c-.494.241-.908.533-1.43.082a.341.341,0,0,0-.582.127c-.27.625-.591.387-.888.053s-.554-.529-.8.038c-.049.115-.158.291-.288.167-.671-.634-1.059-.38-1.467.328-.235.407-.507.112-.634-.209-.242-.613-.507-.794-.888-.09-.16.29-.416.507-.706.151-.472-.572-1.2-.415-1.7-.369-.671.062-.683-.181-.667-.618.018-.478,0-.805-.649-.6-.563.179-1-.279-1.448-.507a.77.77,0,0,1-.226-1.268.367.367,0,0,0-.014-.273c-.888-.138-.492-.672-.446-1.186.034-.393-.867-.935.3-1.075.468-.056.761-.8,1.413-.426a.855.855,0,0,0,.455.013c.118-1.241,1.578-1.285,2-2.255a.685.685,0,0,0-.181-.961c-.474-.37-.344-.588.2-.678.16-.025.4-.036.459-.137a2.636,2.636,0,0,1,3.272-.937c.846.266,1.31.448,1.927-.168.454.484,1.327.109,1.671.812.19.38.421.223.738.147.852-.205,1.751-.451,2.392.507a1.229,1.229,0,0,0,.567.4c.579.221,1,.413.389,1.1-.35.389.051.571.38.7.454.077.933.088,1.158.619a.563.563,0,0,0,.4.281c1.457.271,2.449,1.472,3.828,1.9.435.137.544.47.238.867A1.758,1.758,0,0,1,1364.55,1012.936Z" transform="translate(-1338.26 -991.605)" fill="#fff"/><path d="M1477.12,1010.593c-.106-1.219,1.286-.847,1.67-1.565.1-.181.483-.24.53-.411.217-.779.484-.988,1.014-.223.106.151.279.127.448.023a5.623,5.623,0,0,1,3.669-.681c.792.127,1.353.4,1.938-.276.474.44,1.367-.039,1.675.761.2.534.761-.028,1.045.342.368.478,1.16.488,1.332,1.234a.991.991,0,0,0,.579.522c.613.236,1.522.237.667,1.26-.127.159.077.388.238.507,1.089.761.19,1.846.41,2.766.106.449-1.406.761-2.039.37-.2-.127-.389-.361-.608-.241-1.339.742-2.631-.2-3.951-.087a2.33,2.33,0,0,0-1.131.351c-.388.254-.705.517-.956-.127-.06-.153-.381-.254-.4-.093-.135.888-1.141.181-1.457.85-.106.226-.548,0-.44-.436a2.232,2.232,0,0,1,.7-1.057c.336-.261.127-.716-.134-.62-1.112.4-1.359-.787-2.108-1.047-.531-.185-.918-.634-1.609-.555-.643.071-.818-.545-.92-1.092A2.33,2.33,0,0,0,1477.12,1010.593Z" transform="translate(-1454.896 -993.908)" fill="#fff"/><path d="M1449.555,1090.08a1.153,1.153,0,0,1-1.106.558c-1.014.026-1.99.653-3.043.19-.188-.082-.369.049-.53.2a2.622,2.622,0,0,1-3.837,0,1.284,1.284,0,0,0-1.938-.188,1.287,1.287,0,0,1-1.938-.185c-.319-.318-.634-.582-1.141-.38-.464.189-.932.075-1.051-.435-.185-.8.569-.237.793-.476a1.966,1.966,0,0,0,.127-.151c.768.066,1.48.137,1.911.982.254.507.673.448.908-.173a6.12,6.12,0,0,0,.117-2.37c.3-.27.14-.622.15-.935.066-1.988-.1-3.981.09-5.967.865,0,.587.62.582,1.089-.134,1.8-.034,3.593-.055,5.388,0,.127.09.162.165.221.682-.018,1.535.205,2-.127s-.019-1.268.285-1.987c.424.438.3.94.316,1.395a3.746,3.746,0,0,0,.162,1.484.844.844,0,0,0,1.014.6c.538-.1.564-.49.564-.911v-8.448a8.682,8.682,0,0,1,.011-1.1c.039-.3-.226-.85.353-.833.507.015.657.44.656.95-.008,2.073,0,4.149.057,6.221.011.412-.358,1.211.436,1.171.583-.029,1.513-.013,1.522-1.068,0-.188-.037-.434.217-.507s.332.127.392.332c.183.626.647-.153.936.216-.278.453-1.422.6-.789,1.368.517.625,1.061-.16,1.539-.4,1.108-.55,1.336-.456,1.349.752.01.939-.034,1.877-.011,2.814.01.408-.245.987.223,1.189.521.227.614-.492.966-.7a3.883,3.883,0,0,0,.643-.328.507.507,0,0,1,.411.113,1.327,1.327,0,0,1,.221.2c.761,1.078.783,1.089,1.314-.091.332-.739.922-.454,1.451-.459.127.041.254,0,.372.053.1.081.127.217.211.311.109.078.264.127.318.235.46.879.906,1.321,1.522.091a.439.439,0,0,1,.705.011c.61,1.186.687.2.916-.2.094-.166.138-.38.475-.432-.02.823.634,1.456.541,2.331-.063.607.562.621.932.718.483.127.723.321.615.815s-.462.479-.863.44c-.685-.067-1.544.412-1.857-.715-.067-.254-.38-.218-.507.094-.1.254-.2.493-.309.739-.074.175-.066.417-.327.45-.313.038-.407-.222-.474-.429-.27-.833-.61-.917-1.074-.136a.438.438,0,0,1-.614.175,2.186,2.186,0,0,0-2.734.254c-.588.469-.969.318-1.149-.458-.164-.7-.5-1.082-1.07-.24-.358.524-.615.215-.8-.152-.24-.488-.455-.442-.931-.207a3.068,3.068,0,0,1-2.848.056c-.3-.153-.569-.3-.742.1a1.761,1.761,0,0,1-1.215.958c-.753.151-1.589-.371-2.355.164-.15-.394-.54-.558-.806-.841a3.308,3.308,0,0,1,2.613-.318c.483.175.83-.127,1.117-.486a1.37,1.37,0,0,1,1.791-.4,2.7,2.7,0,0,0,2.241-.034,3.528,3.528,0,0,1,3.669.634c.305.307.557.332.861.067.507-.444,1.078-.318,1.694-.311a9.381,9.381,0,0,0,4.176-.91l-.034-.314c-.448,0-1.014-.176-1.321.032-1.109.75-1.682-.039-2.271-.692s-.947-.714-1.4.134c-.6,1.112-1.174,1.186-2,.3-.355-.381-.588-.381-1.014-.12-1.179.729-2.014.273-2.077-1.117-.038-.837-.009-1.676-.014-2.513a1.6,1.6,0,0,0-.261-1.148,5.475,5.475,0,0,1-.593.761,1.532,1.532,0,0,0,.177,2.663A.661.661,0,0,1,1449.555,1090.08Z" transform="translate(-1418.071 -1055.081)" fill="#fff"/><path d="M1450.772,957.651c-.089.521.45.434.786.333.95-.284,1.775-.38,2.248.748.065.159.292.117.439.172.8.3,1.72.38,2.067,1.419a.908.908,0,0,0,1.214.6c.311-.1.645-.091.695.323.06.5-.361.356-.634.4-.066.011-.155-.016-.2.017a2.448,2.448,0,0,1-3.468-.03c-.784.421-1.612-.781-2.485.1-.153.155-1.131-.223-1.783-.1a20.2,20.2,0,0,1-2.905.34c-1.036.032-1.884-.127-2.547.839-.112.162-.516.057-.625-.143-.474-.865-1.13-.424-1.742-.282-.186.043-.4.316-.539.152-.715-.874-1.917-.837-2.716-1.5-.3-.246-.663-.576-.419-1.122.254-.565.568-.264.888-.139a.307.307,0,0,0,.421-.158c.042-.088.063-.278.075-.275.918.127,1.344-.828,2.029-.973.656-.137,1.217-.922,2-.42.024.015.209-.127.2-.176-.127-1.1.9-1.141,1.462-1.376.689-.281.866-.761,1.188-1.268.076-.127.616.6,1.414.358,1.141-.354,2.139.6,2.981,1.422C1451.017,957.079,1450.868,957.277,1450.772,957.651Z" transform="translate(-1420.81 -948.199)" fill="#fff"/><path d="M1530.594,1080.688c.519.9,1.2.841,1.775,1.014.3.09.719.113.829-.157.278-.678,1.007-.708,1.4-1.084,1.188-1.15,2.4-.619,3.382-.041a3.348,3.348,0,0,1,1.616,2.622,3.6,3.6,0,0,0,.992,2.056c.365.524.235.808-.193,1.035-.676.359-1.23,1.387-2.194.491-1.026.546-2.248-.179-3.271.524a2.578,2.578,0,0,1-1.362.268c-.981.041-1.9-.671-2.917-.245-.089.037-.334-.056-.35-.127-.261-1.082-1.3-.888-2-1.212-.406-.189-.887-.37-.887-.828-.01-.53.569-.487.926-.691A3.69,3.69,0,0,0,1530.594,1080.688Z" transform="translate(-1498.813 -1057.057)" fill="#fff"/><path d="M1365.53,965.983c.473-1.077,1.059-1.378,2.156-1.031a1.611,1.611,0,0,0,1.92-.478,1.559,1.559,0,0,1,2.426-.174,3.561,3.561,0,0,0-2.582,1.6.611.611,0,0,1-.849.246A3.39,3.39,0,0,0,1365.53,965.983Z" transform="translate(-1357.461 -955.787)" fill="#fff"/><path d="M1380.661,901.028a3.805,3.805,0,0,0-2.655,1.614c-.181.245-.354.5-.733.314a4.249,4.249,0,0,0-3.232-.254,1.461,1.461,0,0,1,1.926-1.032,1.968,1.968,0,0,0,2.36-.577A1.565,1.565,0,0,1,1380.661,901.028Z" transform="translate(-1364.892 -900.55)" fill="#fff"/><path d="M1310.65,942.117a1.389,1.389,0,0,1,1.873-1.007,2.1,2.1,0,0,0,2.456-.634,1.526,1.526,0,0,1,2.243-.013,3.938,3.938,0,0,0-2.757,1.764.5.5,0,0,1-.7.137A4.045,4.045,0,0,0,1310.65,942.117Z" transform="translate(-1309.54 -934.988)" fill="#fff"/><path d="M1472.619,1032.17c.318.151.333.469.432.751.112.322.286.621.691.634a3.363,3.363,0,0,1,2.707,1.439c.209.274.474.189.732.127a.743.743,0,0,1,.888.482c.184.412-.254.439-.47.616a8.308,8.308,0,0,0-.745.791l-.174-.193a3.539,3.539,0,0,1,.864-1.245c-1.233.452-1.58-.727-2.326-1.121-.463-.246-.837-.623-1.434-.5s-.838-.357-1.025-.761a1.466,1.466,0,0,0-.8-.805Z" transform="translate(-1450.395 -1015.485)" fill="#fff"/><path d="M1532.246,1083.219c0,.5.019.994-.009,1.49-.013.228-.112.488-.411.458-.241-.024-.283-.261-.284-.459,0-.994-.008-1.99.016-2.982,0-.209.034-.518.353-.507.28.011.368.276.38.507.023.5.008.993.008,1.49Z" transform="translate(-1502.421 -1058.313)" fill="#fff"/><path d="M1552.628,1072.222a1.546,1.546,0,0,1-.946-1.839c.044-.5.3-.634.72-.615.436.015.442.335.413.649C1552.763,1071.01,1552.695,1071.6,1552.628,1072.222Z" transform="translate(-1519.994 -1048.314)" fill="#fff"/><path d="M1573.55,1147.01h-.436a13.436,13.436,0,0,1-.01-3.8c.616-.049.38.431.394.7C1573.538,1144.94,1573.536,1145.975,1573.55,1147.01Z" transform="translate(-1538.599 -1112.437)" fill="#fff"/><path d="M1465.9,1103.05q.01,2.933.017,5.865a1.5,1.5,0,0,1-.254,1.037c.177-1.837.033-3.677.082-5.519A3.128,3.128,0,0,1,1465.9,1103.05Z" transform="translate(-1444.894 -1077.377)" fill="#fff"/><path d="M1470.958,1117.249a1.716,1.716,0,0,1-.266-1.334,21.777,21.777,0,0,1,.156-4.275C1470.913,1113.509,1470.736,1115.383,1470.958,1117.249Z" transform="translate(-1449.261 -1084.878)" fill="#fff"/><path d="M1336.338,1153.648c-.11-.254-.219-.507-.33-.761a4.741,4.741,0,0,1,.188-2.087A9.449,9.449,0,0,1,1336.338,1153.648Z" transform="translate(-1331.653 -1119.072)" fill="#fff"/><path d="M1569.817,1143.27q0,1.9.01,3.8l-.617.213c.464-.254.439-.688.461-1.131A11,11,0,0,1,1569.817,1143.27Z" transform="translate(-1535.313 -1112.497)" fill="#fff"/><path d="M1603.458,1149.831l-.193-.2a10.345,10.345,0,0,1,0-3.213c.458.115.234.469.234.723C1603.5,1148.039,1603.475,1148.936,1603.458,1149.831Z" transform="translate(-1564.941 -1115.247)" fill="#fff"/><path d="M1601.459,1146.42v3.213l-.389-.166c.38-.6.138-1.268.207-1.91C1601.315,1147.175,1601.2,1146.768,1601.459,1146.42Z" transform="translate(-1563.133 -1115.247)" fill="#fff"/></g><text transform="translate(267 203)" fill="#435259" font-size="20" font-family="TitilliumWeb-SemiBold, Titillium Web" font-weight="600"><tspan x="-108.2" y="0">Uncountable</tspan></text></g></svg>