<svg xmlns="http://www.w3.org/2000/svg" xmlns:xlink="http://www.w3.org/1999/xlink" width="236.958" height="50.322" viewBox="0 0 236.958 50.322"><defs><linearGradient id="a" x1="-0.025" y1="0.5" x2="1" y2="0.5" gradientUnits="objectBoundingBox"><stop offset="0" stop-color="#fff"/><stop offset="1" stop-color="#fff" stop-opacity="0.702"/></linearGradient></defs><g transform="translate(-62 -326.16)"><rect width="236.958" height="50.322" rx="25" transform="translate(62 326.16)" fill="url(#a)"/><circle cx="19.5" cy="19.5" r="19.5" transform="translate(69 332)" fill="#06bb43"/><g transform="translate(77 341.511)"><path d="M1404.86,977.259a18.914,18.914,0,0,1,3.373-2.356c2.026-1.236,4.068-2.446,6.092-3.687a11.777,11.777,0,0,0,2.274-1.764,2.769,2.769,0,0,0,.266-4.086,16.227,16.227,0,0,0-2.113-2.145c1,.014,1.987-.264,2.95.263,1.272.7,2.591,1.306,3.8,2.112a8.354,8.354,0,0,1,1.4,1.132,2.483,2.483,0,0,1,.566,2.812,9.711,9.711,0,0,1-.906,1.757c-1.29,2.075-2.789,4.02-3.9,6.208a1.544,1.544,0,0,0-.615-.042q-6.337,0-12.671-.014C1405.223,977.45,1404.914,977.651,1404.86,977.259Z" transform="translate(-1404.86 -957.285)" fill="#fff"/><path d="M1433.15,953.39q1.464-3.766,2.929-7.533c.06-.153.113-.349.324-.34s.251.206.311.359q1.447,3.684,2.885,7.37c.06.154.154.317-.025.461a10.151,10.151,0,0,0-2.479.044,12.441,12.441,0,0,1-.091,1.358c-.054-.017-.14-.036-.146-.074-.092-.659-.618-.906-1.109-1.191a.062.062,0,0,1-.014-.062c-.226-.238-.523-.093-.783-.113-.466-.026-.934-.016-1.4,0C1433.334,953.676,1433.192,953.618,1433.15,953.39Z" transform="translate(-1429.948 -941.638)" fill="#fff"/><path d="M1554.387,918.15c-.6,0-1.206-.007-1.811,0-.4,0-.5-.165-.355-.531q1.21-3.073,2.411-6.151c.053-.136.1-.313.277-.319.217-.007.254.194.313.346.8,2.031,1.6,4.064,2.408,6.092.177.441.029.585-.413.566-.375-.017-.754.021-1.132-.009-.453-.037-.609.156-.581.587a.96.96,0,0,1-.091.658c-.071-.022-.165-.051-.172-.121A1.515,1.515,0,0,0,1554.387,918.15Z" transform="translate(-1535.484 -911.16)" fill="#fff"/><path d="M1456.1,1018.917c1.139-.058,1.139-.058,1.255,1.264-.308.285-.679.14-1.019.134-.226-.006-.24-.2-.239-.379C1456.1,1019.6,1456.1,1019.257,1456.1,1018.917Z" transform="translate(-1450.297 -1006.714)" fill="#fff"/><path d="M1571.752,973h.055c.967,0,.967,0,.972.961v.279c-.151.105-.324.061-.488.079-.4.043-.592-.105-.546-.535A6.681,6.681,0,0,0,1571.752,973Z" transform="translate(-1552.849 -966.01)" fill="#fff"/></g><text transform="translate(118 359)" fill="#435259" font-size="20" font-family="TitilliumWeb-SemiBold, Titillium Web" font-weight="600"><tspan x="0" y="0">Village road</tspan></text></g></svg>