<svg xmlns="http://www.w3.org/2000/svg" xmlns:xlink="http://www.w3.org/1999/xlink" width="236.958" height="50.322" viewBox="0 0 236.958 50.322"><defs><linearGradient id="a" x1="-0.025" y1="0.5" x2="1" y2="0.5" gradientUnits="objectBoundingBox"><stop offset="0" stop-color="#fff"/><stop offset="1" stop-color="#fff" stop-opacity="0.702"/></linearGradient></defs><g transform="translate(-62 -453.072)"><rect width="236.958" height="50.322" rx="25" transform="translate(62 453.072)" fill="url(#a)"/><circle cx="19.5" cy="19.5" r="19.5" transform="translate(69 459)" fill="#06bb43"/><g transform="translate(78.04 469.994)"><path d="M1244.962,790.074a1.048,1.048,0,0,1,.909-.612,2.663,2.663,0,0,0,1.273-.549,8.855,8.855,0,0,0,.987-.869c.493-.521.934-1.09,1.428-1.61a8.242,8.242,0,0,1,2.451-1.981,5.387,5.387,0,0,1,1.7-.478,4.685,4.685,0,0,1,2.249.237,3.716,3.716,0,0,1,1.615,1.177c.105.135.217.266.307.377.484-.226.955-.474,1.447-.668a5.483,5.483,0,0,1,2.521-.344,4.395,4.395,0,0,1,2.609,1.1,3.533,3.533,0,0,1,1.109,1.8c.017.067.04.132.058.2v1.09c-.078.3-.138.609-.236.9a2.82,2.82,0,0,1-1.826,1.9,2.658,2.658,0,0,1-2.482-.253,2.281,2.281,0,0,1-1.026-1.909,1.957,1.957,0,0,1,.283-1.194.813.813,0,0,1,1.322.045.885.885,0,0,1,.059.813.812.812,0,0,0,.752,1.044,1.466,1.466,0,0,0,1.462-1.272,2.138,2.138,0,0,0,.008-1.1,2.162,2.162,0,0,0-1.2-1.259,3.167,3.167,0,0,0-1.483-.3,4.19,4.19,0,0,0-1.607.369,12.2,12.2,0,0,0-1.085.6.232.232,0,0,0-.086.179,4.847,4.847,0,0,1-.493,2.565,3.314,3.314,0,0,1-2.393,1.776,3.072,3.072,0,0,1-2.579-.581,2.259,2.259,0,0,1-.917-1.753,2.656,2.656,0,0,1,.329-1.471,1.918,1.918,0,0,1,.934-.863.8.8,0,0,1,1.012.3.808.808,0,0,1-.248,1.136.8.8,0,0,0-.363.986,1.018,1.018,0,0,0,.751.623,1.711,1.711,0,0,0,1.655-.423,2.68,2.68,0,0,0,.551-2.638,2.313,2.313,0,0,0-1.991-1.578,3.383,3.383,0,0,0-2.121.407,6.054,6.054,0,0,0-.99.715c-.366.32-.7.674-1.036,1.029-.612.652-1.179,1.349-1.825,1.965a5.007,5.007,0,0,1-2.721,1.387.92.92,0,0,1-1.079-.536Z" transform="translate(-1245 -783.93)" fill="#fff"/><path d="M1265.675,1022.908a2.671,2.671,0,0,1-.311.394.914.914,0,0,1-.773.161,5.17,5.17,0,0,1-1.171-.264,17.573,17.573,0,0,1-1.683-.825,3.168,3.168,0,0,0-1.952-.468,3.445,3.445,0,0,0-.931.3c-.4.182-.776.421-1.17.616a5.743,5.743,0,0,1-1.862.616,4.226,4.226,0,0,1-2.366-.412c-.546-.262-1.079-.55-1.62-.823a2.606,2.606,0,0,0-2.455-.025c-.495.246-.982.509-1.477.754a4.2,4.2,0,0,1-1.651.5,3.561,3.561,0,0,1-.593.018.859.859,0,0,1-.649-.542v-.484a1.024,1.024,0,0,1,.98-.613,2.824,2.824,0,0,0,.877-.2c.492-.22.95-.513,1.437-.745a5.525,5.525,0,0,1,1.893-.586,4.392,4.392,0,0,1,2.41.484c.431.213.85.451,1.277.673a3.111,3.111,0,0,0,1.447.414,2.426,2.426,0,0,0,1.107-.251c.521-.268,1.041-.54,1.566-.8a4.856,4.856,0,0,1,1.769-.519,4.329,4.329,0,0,1,2.263.434c.559.265,1.1.565,1.655.841a2.4,2.4,0,0,0,1.043.272.941.941,0,0,1,.94.6Z" transform="translate(-1245.048 -1010.71)" fill="#fff"/><path d="M1265.665,1141.288a2.607,2.607,0,0,1-.161.26,1.072,1.072,0,0,1-1.062.294,5.1,5.1,0,0,1-1.756-.558c-.455-.225-.893-.484-1.349-.706a2.575,2.575,0,0,0-2.347-.05c-.51.245-1.009.517-1.511.776a4.566,4.566,0,0,1-2.446.544,3.783,3.783,0,0,1-1.409-.352c-.573-.283-1.139-.578-1.709-.867a2.688,2.688,0,0,0-1.565-.344,3.183,3.183,0,0,0-.888.24c-.468.21-.908.484-1.37.708a4.829,4.829,0,0,1-1.749.58c-.078.006-.155.03-.234.04a.963.963,0,0,1-1.108-.565v-.444a.851.851,0,0,1,.848-.612,4.529,4.529,0,0,0,2.018-.744,5.571,5.571,0,0,1,2.444-.833,4.288,4.288,0,0,1,2.087.4c.552.265,1.093.553,1.637.833a2.849,2.849,0,0,0,1.286.34,2.786,2.786,0,0,0,1.307-.339c.456-.238.9-.493,1.365-.717a4.85,4.85,0,0,1,1.87-.52,4.433,4.433,0,0,1,2.249.475c.425.21.838.446,1.26.664a3.731,3.731,0,0,0,1.562.448.821.821,0,0,1,.731.561Z" transform="translate(-1245.039 -1124.327)" fill="#fff"/></g><text transform="translate(118 486)" fill="#435259" font-size="20" font-family="TitilliumWeb-SemiBold, Titillium Web" font-weight="600"><tspan x="0" y="0">Water</tspan></text></g></svg>